<?xml version="1.0" encoding="utf-8"?>
<!-- Generator: Adobe Illustrator 16.0.0, SVG Export Plug-In . SVG Version: 6.00 Build 0)  -->
<!DOCTYPE svg PUBLIC "-//W3C//DTD SVG 1.1//EN" "http://www.w3.org/Graphics/SVG/1.1/DTD/svg11.dtd">
<svg version="1.1"
	 id="svg10917" sodipodi:docname="Blank_shield.svg" inkscape:version="0.48.5 r10040" xmlns:inkscape="http://www.inkscape.org/namespaces/inkscape" xmlns:rdf="http://www.w3.org/1999/02/22-rdf-syntax-ns#" xmlns:cc="http://creativecommons.org/ns#" xmlns:dc="http://purl.org/dc/elements/1.1/" xmlns:svg="http://www.w3.org/2000/svg" xmlns:sodipodi="http://sodipodi.sourceforge.net/DTD/sodipodi-0.dtd" xmlns:osb="http://www.openswatchbook.org/uri/2009/osb"
	 xmlns="http://www.w3.org/2000/svg" xmlns:xlink="http://www.w3.org/1999/xlink" x="0px" y="0px" width="600px" height="583.941px"
	 viewBox="0 0 600 583.941" enable-background="new 0 0 600 583.941" xml:space="preserve">
<sodipodi:namedview  inkscape:window-x="4" inkscape:window-maximized="1" inkscape:current-layer="svg10917" inkscape:window-y="0" inkscape:window-width="1276" inkscape:window-height="755" inkscape:pageopacity="0" inkscape:pageshadow="2" showgrid="false" guidetolerance="10" inkscape:cx="427.42759" inkscape:zoom="0.80830222" inkscape:cy="291.97" gridtolerance="10" objecttolerance="10" bordercolor="#666666" borderopacity="1" pagecolor="#ffffff" id="namedview3039">
	</sodipodi:namedview>
<g id="g1876">
	<path id="path1907" fill="#FFFFFF" d="M300.172,16.631l-3.795,2.556c-8.929,6.065-31.218,17.391-41.167,20.938
		c-37.031,13.204-79.097,13.645-114.128,1.156c-9.662-3.445-26.453-12.063-34.503-17.717l-5.772-4.062l-36.129,35.47
		c-45.19,44.363-40.371,39.125-38.617,41.736c0.795,1.184,4.041,5.917,7.207,10.504c10.307,14.935,21.367,36.785,26.499,52.381
		l2.328,7.038l238.459-0.28l238.459-0.28l2.838-8.508c5.699-17.165,14.779-35.102,26.372-52.031
		c4.178-6.099,7.197-11.455,6.729-11.905c-2.171-2.078-70.733-69.272-72.992-71.534l-2.583-2.556l-5.612,3.991
		c-3.097,2.198-10.251,6.397-15.88,9.349c-39.129,20.512-87.829,23.174-132.496,7.248c-9.856-3.515-31.716-14.587-41.327-20.938
		L300.172,16.631z"/>
	<path id="path10915" inkscape:connector-curvature="0" sodipodi:nodetypes="ccssssssscscccssssssscccc" fill="#FFFFFF" d="
		M66.742,176.153l0.545,2.82c2.005,10.129,2.997,26.131,2.467,39.858c-0.718,18.6-3.753,34.224-10.413,53.668
		c-4.619,13.484-7.531,20.36-20.57,48.509c-13.437,29.01-19.991,54.68-18.583,72.668c2.599,33.221,14.994,60.229,39.506,86.094
		c13.026,13.743,28.101,24.557,44.056,31.561c13.239,5.811,24.288,8.199,62.287,13.488c20.463,2.85,43.928,6.127,52.13,7.272
		c31.612,4.424,58.973,13.988,76.321,26.689c2.997,2.194,5.557,4.014,5.671,4.037c0.114,0.024,3.102-1.976,6.664-4.453
		c13.098-9.109,30.328-16.488,49.694-21.275c7.215-1.781,33.532-6.004,63.376-10.188c28.082-3.938,55.163-8.066,60.173-9.164
		c12.305-2.697,24.798-7.408,31.496-11.855c19.695-13.071,43.028-39,54.085-60.141c10.752-20.562,15.068-39.376,14.258-61.839
		c-0.788-21.784-6.338-40.077-22.302-73.5c-19.352-40.52-26.943-68.312-26.913-98.364c0.013-12.303,1.17-26.435,2.756-33.579
		l0.513-2.307H300.351L66.742,176.153z"/>
	<path id="text1871" d="M544.533,216.054c-0.001-47.685,15.814-85.888,47.447-114.609l8.02-7.284l-8.02-7.307L495.615,1.449
		l-6.549,5.836c-20.926,18.489-49.885,27.734-86.876,27.733c-33.088,0-64.957-10.217-95.608-30.651l-6.571-4.366l-5.836,4.366
		c-27.266,20.435-59.143,30.652-95.63,30.651c-35.032,0-63.983-9.244-86.854-27.733l-7.306-5.836L0,94.161l8.02,7.284
		c32.122,29.196,48.183,67.399,48.183,114.609c0,20.435-8.149,48.781-24.448,85.038C15.456,337.35,7.307,365.451,7.307,385.396
		c0,35.521,12.043,67.518,36.131,95.985c24.087,28.469,53.893,46.594,89.415,54.375c52.066,6.326,80.29,9.98,84.67,10.959
		c34.067,6.326,59.373,16.789,75.917,31.387l6.571,5.839l6.571-5.839c16.544-14.598,41.842-25.061,75.895-31.387
		c4.381-0.979,32.611-4.633,84.692-10.959c35.522-7.781,65.446-25.785,89.771-54.008c24.324-28.223,36.486-60.342,36.487-96.354
		c-0.001-19.944-8.148-48.045-24.447-84.304C552.682,264.835,544.532,236.489,544.533,216.054L544.533,216.054z M29.917,94.874
		l75.203-67.139c26.761,18.489,57.902,27.734,93.425,27.733c36.488,0,70.31-10.217,101.466-30.651
		c31.632,20.435,65.691,30.652,102.181,30.651c35.031,0,65.937-9.244,92.712-27.733l75.182,67.139
		c-16.545,18.979-28.715,40.394-36.511,64.244H67.162C58.89,135.268,46.475,113.853,29.917,94.874L29.917,94.874z M541.615,467.882
		c-15.089,17.523-28.231,29.449-39.43,35.775c-8.746,4.854-21.883,8.748-39.404,11.672c-3.401,0.49-31.38,4.381-83.937,11.674
		c-32.611,4.381-58.891,14.359-78.835,29.938c-19.959-15.578-46-25.558-78.121-29.938c-18.964-2.436-47.188-6.326-84.67-11.674
		c-30.162-5.359-56.072-20.693-77.731-45.998c-21.66-25.307-32.489-53.285-32.489-83.937c0-18.979,7.544-43.549,22.632-73.711
		c17.524-35.538,26.286-67.415,26.286-95.631c0-12.162-1.218-24.325-3.653-36.488h455.475c-2.438,12.163-3.654,24.326-3.653,36.488
		c-0.001,27.251,9.006,59.128,27.021,95.631c14.598,29.195,21.896,53.767,21.896,73.711
		C573.001,415.572,562.539,443.068,541.615,467.882L541.615,467.882z"/>
</g>
<linearGradient id="path3046_1_" gradientUnits="userSpaceOnUse" x1="7.6768" y1="624.8711" x2="557.8242" y2="624.8711" gradientTransform="matrix(1 0 0 1 17 -257.0596)">
	<stop  offset="0" style="stop-color:#56250A"/>
	<stop  offset="0.1272" style="stop-color:#56250A"/>
	<stop  offset="0.33" style="stop-color:#56250A"/>
	<stop  offset="0.33" style="stop-color:#9AC1E3"/>
	<stop  offset="0.66" style="stop-color:#9AC1E3"/>
	<stop  offset="0.66" style="stop-color:#56250A"/>
	<stop  offset="1" style="stop-color:#56250A"/>
</linearGradient>
<path id="path3046" inkscape:connector-curvature="0" fill="url(#path3046_1_)" d="M293.497,555.605
	c-14.427-9.893-35.683-18.467-56.066-22.618c-6.667-1.357-32.953-5.366-58.414-8.907s-50.516-7.615-55.676-9.054
	c-29.271-8.157-57.345-29.562-76.268-58.153c-12.256-18.516-17.378-31.306-20.781-51.885c-4.621-27.943-0.031-47.641,23.009-98.744
	c15.522-34.428,21.973-56.355,23.763-80.782c0.888-12.119,0.146-32-1.617-43.298l-0.938-6.01h229.525h229.524l-1.78,11.702
	c-2.533,16.656-1.377,43.08,2.645,60.409c4.221,18.191,8.918,31.039,22.558,61.701c18.808,42.283,22.768,57.332,21.679,82.411
	c-1.057,24.352-7.302,42.913-21.96,65.26c-7.969,12.149-32.484,37.382-43.663,44.941c-15.801,10.688-24.788,12.775-101.059,23.495
	c-57.306,8.055-76.55,13.453-98.008,27.489c-4.974,3.252-9.446,5.911-9.941,5.907C299.532,559.468,296.594,557.729,293.497,555.605
	L293.497,555.605z"/>
<path id="path5298" inkscape:connector-curvature="0" fill="#9AC1E3" d="M63.662,159.789c-7.602-21.27-16.088-37.645-28.469-54.936
	l-7.043-9.837l3.854-3.473c2.12-1.91,18.991-17.864,37.491-35.452l33.635-31.978l9.799,6.211
	c16.563,10.5,37.294,18.017,58.393,21.175c12.1,1.812,40.516,1.806,52.552-0.011c24.179-3.65,53.597-14.99,71.398-27.521
	l4.684-3.298l9.817,6.053C338.737,44.58,368.456,52.88,403.42,52.88c20.307,0,36.576-2.343,52.121-7.508
	c11.033-3.667,30.033-12.987,37.291-18.295l4.329-3.166l33.687,32.079c18.527,17.644,35.434,33.652,37.565,35.575l3.88,3.495
	l-6.927,9.815c-11.78,16.689-19.763,31.881-26.312,50.077l-2.991,8.319H300.485H64.906L63.662,159.789L63.662,159.789
	L63.662,159.789z"/>
<text transform="matrix(1.181 0 0 1 117.5 152.4707)" fill="#56250A" font-family="'Roboto-Regular'" font-size="128">S·H·S</text>
</svg>
