<?xml version="1.0" encoding="UTF-8" standalone="no"?>
<!-- Created with Inkscape (http://www.inkscape.org/) -->

<svg
   xmlns:osb="http://www.openswatchbook.org/uri/2009/osb"
   xmlns:dc="http://purl.org/dc/elements/1.1/"
   xmlns:cc="http://creativecommons.org/ns#"
   xmlns:rdf="http://www.w3.org/1999/02/22-rdf-syntax-ns#"
   xmlns:svg="http://www.w3.org/2000/svg"
   xmlns="http://www.w3.org/2000/svg"
   xmlns:xlink="http://www.w3.org/1999/xlink"
   xmlns:sodipodi="http://sodipodi.sourceforge.net/DTD/sodipodi-0.dtd"
   xmlns:inkscape="http://www.inkscape.org/namespaces/inkscape"
   version="1.0"
   width="600"
   height="583.94"
   id="svg10917"
   inkscape:version="0.48.5 r10040"
   sodipodi:docname="Blank_shield.svg">
  <metadata
     id="metadata3041">
    <rdf:RDF>
      <cc:Work
         rdf:about="">
        <dc:format>image/svg+xml</dc:format>
        <dc:type
           rdf:resource="http://purl.org/dc/dcmitype/StillImage" />
      </cc:Work>
    </rdf:RDF>
  </metadata>
  <sodipodi:namedview
     pagecolor="#ffffff"
     bordercolor="#666666"
     borderopacity="1"
     objecttolerance="10"
     gridtolerance="10"
     guidetolerance="10"
     inkscape:pageopacity="0"
     inkscape:pageshadow="2"
     inkscape:window-width="1276"
     inkscape:window-height="755"
     id="namedview3039"
     showgrid="false"
     inkscape:zoom="0.80830222"
     inkscape:cx="427.42759"
     inkscape:cy="291.97"
     inkscape:window-x="4"
     inkscape:window-y="0"
     inkscape:window-maximized="1"
     inkscape:current-layer="svg10917" />
  <defs
     id="defs3">
    <linearGradient
       id="linearGradient5282">
      <stop
         style="stop-color:#56250a;stop-opacity:1;"
         offset="0"
         id="stop5284" />
      <stop
         id="stop5310"
         offset="0.12723215"
         style="stop-color:#56250a;stop-opacity:1;" />
      <stop
         id="stop5296"
         offset="0.33000001"
         style="stop-color:#56250a;stop-opacity:1;" />
      <stop
         style="stop-color:#9ac1e3;stop-opacity:1;"
         offset="0.33000001"
         id="stop5308" />
      <stop
         id="stop5312"
         offset="0.66000003"
         style="stop-color:#9ac1e3;stop-opacity:1;" />
      <stop
         style="stop-color:#56250a;stop-opacity:1;"
         offset="0.66000003"
         id="stop5306" />
      <stop
         style="stop-color:#56250a;stop-opacity:1;"
         offset="1"
         id="stop5286" />
    </linearGradient>
    <linearGradient
       id="linearGradient5276"
       osb:paint="solid">
      <stop
         style="stop-color:#ffff00;stop-opacity:1;"
         offset="0"
         id="stop5278" />
    </linearGradient>
    <linearGradient
       id="linearGradient5255"
       osb:paint="solid">
      <stop
         style="stop-color:#ffff00;stop-opacity:1;"
         offset="0"
         id="stop5257" />
    </linearGradient>
    <linearGradient
       inkscape:collect="always"
       xlink:href="#linearGradient5282"
       id="linearGradient5288"
       x1="27.751703"
       y1="367.80533"
       x2="571.74744"
       y2="367.80533"
       gradientUnits="userSpaceOnUse" />
  </defs>
  <g
     id="g1876">
    <path
       d="M 300.17163,16.631226 L 296.37694,19.187249 C 287.44758,25.252893 265.15892,36.577975 255.20931,40.125624 C 218.17841,53.329389 176.11299,53.77028 141.08159,41.281087 C 131.41923,37.836323 114.62876,29.21842 106.57859,23.563999 L 100.80684,19.502375 L 64.677547,54.971562 C 19.487227,99.334896 24.307232,94.096615 26.060982,96.708258 C 26.855883,97.892029 30.101789,102.62506 33.267707,107.21247 C 43.574507,122.14701 54.63441,143.99683 59.76677,159.59341 L 62.094606,166.63123 L 300.55429,166.35111 L 539.01397,166.071 L 541.85202,157.56261 C 547.55125,140.39781 556.63068,122.46035 568.22353,105.5318 C 572.40018,99.432836 575.42128,94.076459 574.95193,93.627024 C 572.78142,91.548657 504.21926,24.354959 501.95993,22.093411 L 499.37699,19.537389 L 493.76467,23.528985 C 490.66831,25.727203 483.51411,29.926467 477.88436,32.877726 C 438.75588,53.389918 390.05543,56.051907 345.38905,40.125624 C 335.53092,36.610601 313.67264,25.538496 304.06199,19.187249 L 300.17163,16.631226 z "
       style="fill:white;stroke:none;stroke-opacity:1"
       id="path1907" />
    <path
       d="m 66.742306,176.153 0.54469,2.81957 c 2.00524,10.12948 2.996886,26.13085 2.467124,39.85848 -0.71777,18.59953 -3.753054,34.22383 -10.413188,53.66798 -4.618571,13.48382 -7.531034,20.35924 -20.570053,48.50943 -13.436406,29.00814 -19.990956,54.67809 -18.583536,72.66804 2.598834,33.2191 14.994511,60.22912 39.506035,86.09304 13.025628,13.74425 28.100403,24.55713 44.055802,31.55997 13.23896,5.81062 24.28812,8.20021 62.28688,13.48909 20.46347,2.84816 43.92787,6.12542 52.13003,7.27321 31.61204,4.42338 58.973,13.98792 76.32066,26.6898 2.99663,2.19407 5.55686,4.01201 5.67118,4.03711 0.1143,0.0252 3.10194,-1.97592 6.66444,-4.45364 13.09712,-9.10931 30.32768,-16.48858 49.69495,-21.27494 7.21375,-1.7827 33.5327,-6.00554 63.37626,-10.18891 28.08219,-3.93663 55.16292,-8.06538 60.17221,-9.1636 12.30406,-2.69759 24.79731,-7.40878 31.49589,-11.85502 19.69585,-13.07338 43.02942,-39.0005 54.0845,-60.14017 10.75273,-20.56155 15.07001,-39.37684 14.25806,-61.83832 -0.78752,-21.78545 -6.33771,-40.07823 -22.30024,-73.50109 -19.35149,-40.51867 -26.94441,-68.31186 -26.91409,-98.36458 0.0124,-12.30304 1.16934,-26.43478 2.75549,-33.57853 l 0.51265,-2.30692 -233.60787,0 z"
       style="fill:#ffffff;stroke:none"
       id="path10915"
       inkscape:connector-curvature="0"
       sodipodi:nodetypes="ccssssssscscccssssssscccc" />
    <path
       d="M 544.53316,216.05434 C 544.53261,168.36958 560.34845,130.16654 591.98072,101.44509 L 600.00002,94.160885 L 591.98072,86.854406 L 495.61539,1.4487962 L 489.06629,7.2850689 C 468.14137,25.774583 439.1828,35.019051 402.19047,35.018502 C 369.10304,35.019051 337.23376,24.801872 306.58253,4.3669325 L 300.01115,0.00086590648 L 294.17488,4.3669325 C 266.90897,24.801872 235.03226,35.019051 198.54465,35.018502 C 163.512,35.019051 134.56085,25.774583 111.69111,7.2850689 L 104.38463,1.4487962 L 0,94.160885 L 8.0193061,101.44509 C 40.141042,130.64176 56.201914,168.8448 56.20197,216.05434 C 56.201914,236.48906 48.052673,264.83506 31.754224,301.09239 C 15.455712,337.3503 7.3064716,365.45126 7.3064789,385.39535 C 7.3064716,420.91807 19.350269,452.91358 43.437908,481.38199 C 67.52546,509.8506 97.330517,527.9757 132.85317,535.75734 C 184.91907,542.08372 213.14255,545.73696 217.52368,546.71706 C 251.59063,553.04343 276.89597,563.50564 293.43977,578.10373 L 300.01115,583.94 L 306.58253,578.10373 C 323.12573,563.50564 348.42365,553.04343 382.47635,546.71706 C 386.85688,545.73696 415.08778,542.08372 467.16913,535.75734 C 502.69118,527.9757 532.61505,509.97312 556.94081,481.74954 C 581.26545,453.52617 593.42806,421.40814 593.42865,385.39535 C 593.42806,365.45126 585.27881,337.3503 568.9809,301.09239 C 552.68185,264.83506 544.53261,236.48906 544.53316,216.05434 L 544.53316,216.05434 z M 29.916467,94.873712 L 105.11974,27.734299 C 131.88033,46.223793 163.02193,55.468261 198.54465,55.467733 C 235.03226,55.468261 268.85439,45.251082 300.01115,24.816163 C 331.64253,45.251082 365.70227,55.468261 402.19047,55.467733 C 437.22252,55.468261 468.12652,46.223793 494.90256,27.734299 L 570.08356,94.873712 C 553.53947,113.85321 541.36945,135.2677 533.57344,159.11726 L 67.161688,159.11726 C 58.889864,135.2677 46.474802,113.85321 29.916467,94.873712 L 29.916467,94.873712 z M 541.61502,467.88282 C 526.52632,485.40659 513.38358,497.33158 502.18677,503.65784 C 493.43929,508.51405 480.30398,512.40489 462.78079,515.33038 C 459.37955,515.82052 431.40111,519.71137 378.84538,527.00293 C 346.23319,531.3839 319.95514,541.36347 300.01115,556.94167 C 280.05171,541.36347 254.01127,531.3839 221.88974,527.00293 C 202.92537,524.5675 174.70189,520.67665 137.21924,515.33038 C 107.05763,509.9694 81.147128,494.63621 59.487658,469.33075 C 37.828068,444.02553 26.998303,416.04709 26.99833,385.39535 C 26.998303,366.41654 34.542384,341.8463 49.630594,311.68456 C 67.154196,276.14746 75.916021,244.27075 75.916097,216.05434 C 75.916021,203.8921 74.698276,191.7295 72.262858,179.56649 L 527.73717,179.56649 C 525.30115,191.7295 524.0834,203.8921 524.08393,216.05434 C 524.0834,243.30547 533.09026,275.18218 551.10453,311.68456 C 565.70207,340.88102 573.00112,365.45126 573.00169,385.39535 C 573.00112,415.57187 562.53891,443.06767 541.61502,467.88282 L 541.61502,467.88282 z "
       style="font-size:729.93505859px;font-style:normal;font-variant:normal;font-weight:bold;font-stretch:normal;text-align:start;line-height:125%;writing-mode:lr-tb;text-anchor:start;fill:black;fill-opacity:1;stroke:none;stroke-width:1px;stroke-linecap:butt;stroke-linejoin:miter;stroke-opacity:1;font-family:USHighwaysOldStyleBCBA"
       id="text1871" />
  </g>
  <path
     style="fill:url(#linearGradient5288);stroke:none;fill-opacity:1.0;fill-rule:nonzero"
     d="m 293.56676,551.45219 c -14.26523,-9.67313 -35.28352,-18.05896 -55.43915,-22.11902 -6.59237,-1.32793 -32.58485,-5.24769 -57.76108,-8.71057 -25.17623,-3.46289 -49.95038,-7.44691 -55.05367,-8.85338 -28.944148,-7.97702 -56.704131,-28.91018 -75.415119,-56.86881 -12.118809,-18.10835 -17.183974,-30.61526 -20.549,-50.73957 -4.56941,-27.32706 -0.03101,-46.58936 22.751656,-96.56467 15.34836,-33.66765 21.726493,-55.11134 23.49715,-78.9989 0.878431,-11.85074 0.144102,-31.29427 -1.599167,-42.34268 l -0.927224,-5.87651 226.958954,0 226.95896,0 -1.76036,11.44374 c -2.50563,16.28849 -1.36227,42.1289 2.61385,59.07444 4.17431,17.79017 8.81846,30.35354 22.30502,60.33954 18.59757,41.34983 22.51218,56.06695 21.43652,80.59126 -1.04445,23.81287 -7.22119,41.9657 -21.71533,63.81934 -7.87897,11.87957 -32.12039,36.55608 -43.17477,43.9497 -15.62413,10.45007 -24.51047,12.49334 -99.927,22.97658 -56.665,7.8767 -75.69485,13.15506 -96.91294,26.88096 -4.91781,3.18133 -9.34167,5.78184 -9.83078,5.77893 -0.48911,-0.002 -3.39454,-1.70409 -6.45652,-3.78038 l 0,0 z"
     id="path3046"
     inkscape:connector-curvature="0" />
  <path
     style="fill:#9ac1e3;fill-opacity:1;fill-rule:nonzero"
     d="M 66.121983,154.87272 C 58.605265,135.10224 50.214925,119.8823 37.972451,103.8099 l -6.964219,-9.142899 3.811296,-3.22871 C 36.915742,89.6625 53.596996,74.833954 71.888982,58.485966 l 33.258158,-29.723615 9.68768,5.772829 c 16.37802,9.75956 36.8754,16.747309 57.73759,19.683288 11.96377,1.683684 40.06073,1.677793 51.96077,-0.01089 23.90749,-3.392619 52.9953,-13.932481 70.59645,-25.580368 l 4.63238,-3.065567 9.707,5.625899 c 28.6391,16.598413 58.02446,24.314591 92.59677,24.314591 20.07705,0 36.1634,-2.178722 51.53513,-6.979873 10.90908,-3.407302 29.69552,-12.071242 36.87205,-17.004669 l 4.28024,-2.942396 33.30798,29.817191 c 18.3194,16.399456 35.03419,31.279382 37.14397,33.066504 l 3.83598,3.249313 -6.84904,9.122294 c -11.64751,15.51343 -19.53934,29.63397 -26.01431,46.54642 l -2.96033,7.73226 -232.93248,0 -232.932484,0 -1.230503,-3.23646 0,0 z"
     id="path5298"
     inkscape:connector-curvature="0" />
  <text
     xml:space="preserve"
     style="font-size:79.77013397px;font-style:normal;font-variant:normal;font-weight:bold;font-stretch:normal;line-height:125%;letter-spacing:0px;word-spacing:0px;fill:#56250a;fill-opacity:1;stroke:none;font-family:Arial;-inkscape-font-specification:Arial Bold"
     x="88.280235"
     y="164.53827"
     id="text5300"
     sodipodi:linespacing="125%"
     transform="scale(1.086725,0.92019602)"><tspan
       sodipodi:role="line"
       id="tspan5302"
       x="88.280235"
       y="164.53827"
       style="font-size:143.58624268px;fill:#56250a;fill-opacity:1">S•H•S</tspan></text>
</svg>
